<svg xmlns="http://www.w3.org/2000/svg" viewBox="0 0 32 32" fill="none">
  <!-- 배경: 부드러운 하늘색 그라디언트 -->
  <defs>
    <linearGradient id="bg" x1="0" y1="0" x2="0" y2="32">
      <stop offset="0" stop-color="#e3f2fd"/>
      <stop offset="1" stop-color="#e8f5e9"/>
    </linearGradient>
    <linearGradient id="leaf" x1="10" y1="10" x2="22" y2="24">
      <stop offset="0" stop-color="#66bb6a"/>
      <stop offset="1" stop-color="#2e7d32"/>
    </linearGradient>
    <linearGradient id="water" x1="8" y1="20" x2="24" y2="28">
      <stop offset="0" stop-color="#4fc3f7"/>
      <stop offset="1" stop-color="#039be5"/>
    </linearGradient>
  </defs>

  <rect width="32" height="32" rx="8" fill="url(#bg)"/>

  <!-- 지구(원) -->
  <circle cx="16" cy="15" r="8" fill="#e8f5e9" opacity="0.95"/>

  <!-- 물결(물/대기) -->
  <path
    d="M9 19c1.2 1 2.4 1.5 3.6 1.5 1.2 0 2.4-.5 3.6-1.5 1.2 1 2.4 1.5 3.6 1.5 1.2 0 2.4-.5 3.6-1.5v2c-1.2 1-2.4 1.5-3.6 1.5-1.2 0-2.4-.5-3.6-1.5-1.2 1-2.4 1.5-3.6 1.5-1.2 0-2.4-.5-3.6-1.5V19z"
    fill="url(#water)"
    opacity="0.9"
  />

  <!-- 잎사귀(에너지·탄소중립 상징) -->
  <path
    d="M11 10.5c2.8-1.5 6.5-1.4 9 0.8 1.8 1.6 2.3 4.1 1.3 6.3-2.8 1.5-6.5 1.4-9-0.8C10.5 15.2 10 12.7 11 10.5z"
    fill="url(#leaf)"
  />
  <!-- 잎맥 -->
  <path
    d="M14 12.5c1 .4 1.8 1.1 2.4 2 .4.6.7 1.3.9 2"
    stroke="#e8f5e9"
    stroke-width="0.7"
    stroke-linecap="round"
  />
</svg>
